<?xml version="1.0" standalone="no"?>
<!DOCTYPE svg PUBLIC "-//W3C//DTD SVG 20010904//EN"
 "http://www.w3.org/TR/2001/REC-SVG-20010904/DTD/svg10.dtd">
<svg version="1.0" xmlns="http://www.w3.org/2000/svg"
 width="900.000000pt" height="900.000000pt" viewBox="0 0 900.000000 900.000000"
 preserveAspectRatio="xMidYMid meet">
<metadata>
Created by potrace 1.14, written by Peter Selinger 2001-2017
</metadata>
<g transform="translate(0.000000,900.000000) scale(0.100000,-0.100000)"
fill="#000000" stroke="none">
<path d="M2529 5401 l-29 -29 0 -837 0 -837 29 -29 29 -29 619 0 c675 0 697 2
817 58 174 82 274 232 291 438 8 97 -13 211 -55 294 -32 63 -113 158 -155 180
-16 9 -24 20 -21 30 3 8 15 42 27 75 27 74 32 251 10 330 -40 141 -134 256
-263 321 -123 62 -143 64 -736 64 l-534 0 -29 -29z m1131 -353 c63 -32 93 -92
87 -170 -6 -71 -29 -110 -81 -139 -41 -23 -44 -23 -423 -24 l-383 -1 0 178 0
178 378 0 c372 0 378 0 422 -22z m175 -710 c49 -27 75 -62 86 -119 21 -98 -24
-185 -107 -208 -25 -7 -196 -11 -496 -11 l-458 0 0 149 c0 134 2 151 20 174
11 14 30 27 43 29 12 2 216 4 452 3 378 0 434 -2 460 -17z"/>
<path d="M5029 5401 l-29 -29 0 -837 0 -837 29 -29 29 -29 685 0 c639 0 685 1
699 18 26 28 169 322 163 332 -4 6 -244 10 -626 10 l-619 0 0 149 c0 144 1
151 24 178 l24 28 330 1 c181 0 334 4 341 8 17 11 173 326 168 340 -3 8 -124
11 -446 11 l-441 0 0 177 0 178 535 0 535 0 20 33 c47 75 160 308 155 317 -4
6 -285 10 -776 10 l-771 0 -29 -29z"/>
<path d="M7170 5401 l-30 -29 0 -846 c0 -833 0 -846 20 -866 18 -18 33 -20
179 -20 l160 0 3 208 c3 196 4 209 26 244 13 20 40 47 60 60 36 22 44 23 329
26 l292 3 147 -248 c81 -136 156 -258 167 -271 21 -22 24 -22 211 -20 115 2
191 7 193 13 1 6 -73 139 -166 297 l-169 288 45 22 c67 34 159 122 202 196 64
109 86 195 86 342 0 142 -12 203 -61 307 -64 135 -184 239 -338 290 l-81 28
-623 3 -623 3 -29 -30z m1270 -352 c91 -42 136 -136 128 -269 -6 -104 -36
-163 -103 -205 l-48 -30 -459 -3 -458 -3 0 266 0 266 453 -3 c389 -3 457 -5
487 -19z"/>
<path d="M22 5404 l-22 -15 0 -550 c0 -609 2 -636 64 -780 110 -255 337 -423
631 -469 89 -14 310 -14 397 0 210 33 402 138 521 285 58 72 128 213 154 310
16 64 18 119 18 650 l0 580 -154 3 c-125 2 -158 0 -177 -13 l-24 -15 0 -518
c0 -333 -4 -540 -11 -578 -22 -120 -96 -226 -201 -287 -161 -94 -478 -93 -651
1 -68 36 -150 129 -179 199 l-23 58 -3 578 -3 577 -157 0 c-126 0 -162 -3
-180 -16z"/>
</g>
</svg>
